<svg xmlns="http://www.w3.org/2000/svg" width="55.803" height="94" viewBox="0 0 55.803 94">
  <g id="Grupo_835" data-name="Grupo 835" transform="translate(-156 -478)">
    <text id="_" data-name="+" transform="translate(156 554)" fill="#fff" font-size="84" font-family="Arial-BoldMT, Arial" font-weight="700"><tspan x="0" y="0">+</tspan></text>
    <g id="paw" transform="translate(183.543 529.388)">
      <g id="Grupo_135" data-name="Grupo 135" transform="translate(4.633 10.52)">
        <g id="Grupo_134" data-name="Grupo 134">
          <path id="Caminho_302" data-name="Caminho 302" d="M100.209,230.056a8.212,8.212,0,0,0-13.535,0,11.412,11.412,0,0,0-2.729,6.957,3.107,3.107,0,0,0,1.012,2.521,3.811,3.811,0,0,0,2.514.739,19.279,19.279,0,0,0,3.325-.419,16.37,16.37,0,0,1,2.646-.353,15.411,15.411,0,0,1,2.428.335c2.17.4,4.63.86,6.051-.322a3.079,3.079,0,0,0,1.018-2.5A11.411,11.411,0,0,0,100.209,230.056Z" transform="translate(-83.945 -226.496)" fill="#3c6382"/>
        </g>
      </g>
      <g id="Grupo_137" data-name="Grupo 137" transform="translate(14.635 0)">
        <g id="Grupo_136" data-name="Grupo 136" transform="translate(0 0)">
          <path id="Caminho_303" data-name="Caminho 303" d="M271.6,37.52a3.121,3.121,0,0,0-5.466,0,6.62,6.62,0,0,0,0,6.968,3.121,3.121,0,0,0,5.466,0,6.62,6.62,0,0,0,0-6.968Z" transform="translate(-265.141 -35.906)" fill="#3c6382"/>
        </g>
      </g>
      <g id="Grupo_139" data-name="Grupo 139" transform="translate(6.177 0)">
        <g id="Grupo_138" data-name="Grupo 138" transform="translate(0 0)">
          <path id="Caminho_304" data-name="Caminho 304" d="M118.373,37.519a3.121,3.121,0,0,0-5.466,0,6.62,6.62,0,0,0,0,6.968,3.121,3.121,0,0,0,5.466,0,6.62,6.62,0,0,0,0-6.968Z" transform="translate(-111.916 -35.905)" fill="#3c6382"/>
        </g>
      </g>
      <g id="Grupo_141" data-name="Grupo 141" transform="translate(21.932 7.507)">
        <g id="Grupo_140" data-name="Grupo 140">
          <path id="Caminho_305" data-name="Caminho 305" d="M403.513,174.022a2.843,2.843,0,0,0-1.693-1.952,2.66,2.66,0,0,0-2.074.117,4.268,4.268,0,0,0-2.117,2.5,4.615,4.615,0,0,0-.115,2.794,2.843,2.843,0,0,0,1.693,1.952,2.49,2.49,0,0,0,.878.158,2.825,2.825,0,0,0,1.2-.275,4.269,4.269,0,0,0,2.117-2.5h0A4.615,4.615,0,0,0,403.513,174.022Z" transform="translate(-397.35 -171.912)" fill="#3c6382"/>
        </g>
      </g>
      <g id="Grupo_143" data-name="Grupo 143" transform="translate(0 7.507)">
        <g id="Grupo_142" data-name="Grupo 142">
          <path id="Caminho_306" data-name="Caminho 306" d="M6.049,174.689a4.269,4.269,0,0,0-2.117-2.5,2.66,2.66,0,0,0-2.074-.117,2.844,2.844,0,0,0-1.693,1.952,4.615,4.615,0,0,0,.115,2.794h0a4.269,4.269,0,0,0,2.117,2.5,2.825,2.825,0,0,0,1.2.275,2.491,2.491,0,0,0,.878-.158,2.843,2.843,0,0,0,1.693-1.952A4.617,4.617,0,0,0,6.049,174.689Z" transform="translate(-0.001 -171.912)" fill="#3c6382"/>
        </g>
      </g>
    </g>
  </g>
</svg>
