<svg xmlns="http://www.w3.org/2000/svg" width="35.687" height="36.304" viewBox="0 0 35.687 36.304">
  <g id="Alert" transform="translate(0 0.433)">
    <rect id="Retângulo_479" data-name="Retângulo 479" width="35" height="36" transform="translate(0.393 -0.433)" fill="none"/>
    <path id="Caminho_1" data-name="Caminho 1" d="M33.552,31.387H22.342a4.484,4.484,0,1,1-8.968,0H2.164A2.153,2.153,0,0,1,.147,29.818a2.394,2.394,0,0,1,.673-2.466,9.026,9.026,0,0,0,3.587-7.174V13.452a13.452,13.452,0,0,1,26.9,0v6.726A9.026,9.026,0,0,0,34.9,27.352a2.123,2.123,0,0,1,.673,2.466A2.153,2.153,0,0,1,33.552,31.387Z" transform="translate(-0.063)" fill="#fff" fill-rule="evenodd"/>
  </g>
</svg>
