<svg xmlns="http://www.w3.org/2000/svg" width="61.34" height="61.02" viewBox="0 0 61.34 61.02">
  <g id="Grupo_755" data-name="Grupo 755" transform="translate(-29.693 -30.082)">
    <g id="Calendar" transform="translate(29.693 30.082)">
      <rect id="Retângulo_557" data-name="Retângulo 557" width="60" height="60" transform="translate(0 0.481)" fill="none"/>
      <path id="Caminho_149" data-name="Caminho 149" d="M7.627,19.069V53.392H53.392V19.069ZM49.579,7.627h7.627a3.6,3.6,0,0,1,3.814,3.814V57.206a3.6,3.6,0,0,1-3.814,3.814H3.814A3.6,3.6,0,0,1,0,57.206V11.441A3.6,3.6,0,0,1,3.814,7.627h7.627V3.814A3.6,3.6,0,0,1,15.255,0a3.6,3.6,0,0,1,3.814,3.814V7.627H41.951V3.814a3.814,3.814,0,0,1,7.627,0ZM45.765,45.765H38.137V38.137h7.627Zm-11.441,0H26.7V38.137h7.627ZM45.765,34.324H38.137V26.7h7.627Zm-11.441,0H26.7V26.7h7.627ZM22.882,45.765H15.255V38.137h7.627Z" transform="translate(0.32 0)" fill="#fff" fill-rule="evenodd"/>
    </g>
  </g>
</svg>
