<svg xmlns="http://www.w3.org/2000/svg" width="53.749" height="71.97" viewBox="0 0 53.749 71.97">
  <path id="cat" d="M22.518,6.565v-1.8l4.135,4.963a1.284,1.284,0,0,0,.984.461h7.678a1.284,1.284,0,0,0,.984-.461l4.135-4.963v1.8a7.391,7.391,0,0,1-2.167,5.256,1.28,1.28,0,0,0-.128,1.752,4.519,4.519,0,0,1-.612,6.326l-4.607,3.839a2.315,2.315,0,0,1-2.888,0L25.423,19.9a4.52,4.52,0,0,1-.6-6.335l.019-.024a1.278,1.278,0,0,0-.207-1.787c-.018-.015-.036-.028-.055-.042a7.4,7.4,0,0,1-2.059-5.145ZM55.791,76.732H14.839a3.839,3.839,0,0,1,0-7.678h5.119a1.28,1.28,0,0,1,0,2.56h-6.4v2.559h24.9a61.4,61.4,0,0,0,21.623-3.92l-.9-2.4A58.812,58.812,0,0,1,45.323,71.2l-.882-.587a11.872,11.872,0,0,1,0-19.757l1.822-1.214-1.419-2.13-1.822,1.214a14.384,14.384,0,0,0-5.23,6.3l2.631-19.076-2.534-.349L32.921,71.613H30.273l.677-11.5A44.836,44.836,0,0,0,28.4,42.31a42.749,42.749,0,0,1-2.257-18.478L28.4,25.708a4.815,4.815,0,0,0,6.163,0l4.386-3.656a25.727,25.727,0,0,0,8.695,10.433A37.351,37.351,0,0,1,61.414,50.158l.27.72a47.948,47.948,0,0,1,3.065,16.9,8.969,8.969,0,0,1-8.958,8.958ZM36.734,62.685a14.376,14.376,0,0,0,4.727,8.847c-1,.05-2,.082-3,.082H35.5Z" transform="translate(-11 -4.762)" fill="#fff"/>
</svg>
