<svg xmlns="http://www.w3.org/2000/svg" width="36" height="36.38" viewBox="0 0 36 36.38">
  <g id="Symbol_113_1" data-name="Symbol 113 – 1" transform="translate(-0.13 0.433)">
    <rect id="Retângulo_305" data-name="Retângulo 305" width="36" height="36" transform="translate(0.13 -0.433)" fill="none"/>
    <path id="Caminho_114" data-name="Caminho 114" d="M14.751,21.339a6.26,6.26,0,0,0,6.271-6.271,6.453,6.453,0,0,0-6.271-6.5A6.26,6.26,0,0,0,8.48,14.844,6.61,6.61,0,0,0,14.751,21.339ZM4.224,4.317A14.887,14.887,0,0,1,25.277,25.37L14.751,35.9,4.224,25.37A15.293,15.293,0,0,1,4.224,4.317Z" transform="translate(1.984 0.05)" fill="#fff" fill-rule="evenodd"/>
  </g>
</svg>
