<svg xmlns="http://www.w3.org/2000/svg" width="39.517" height="40.217" viewBox="0 0 39.517 40.217">
  <g id="Grupo_753" data-name="Grupo 753" transform="translate(0 0)">
    <path id="Caminho_314" data-name="Caminho 314" d="M733,647" transform="translate(-718.373 -610.913)" fill="#fff"/>
    <path id="Caminho_315" data-name="Caminho 315" d="M696.41,403.921h0a11.05,11.05,0,1,0-17.8,1.263h0l3.273,5.049v3.614h10.223v-3.614l3.849-5.649q.233-.318.445-.653Z" transform="translate(-667.259 -377.761)" fill="#fff"/>
    <rect id="Retângulo_1455" data-name="Retângulo 1455" width="10.533" height="2.375" rx="1.188" transform="translate(14.523 37.842)" fill="#fff"/>
    <rect id="Retângulo_1456" data-name="Retângulo 1456" width="6.856" height="3.141" rx="1.571" transform="translate(28.834 30.214) rotate(52.55)" fill="#fff"/>
    <rect id="Retângulo_1457" data-name="Retângulo 1457" width="6.856" height="3.141" rx="1.571" transform="translate(33.036 22.821) rotate(19.031)" fill="#fff"/>
    <rect id="Retângulo_1458" data-name="Retângulo 1458" width="6.856" height="3.141" rx="1.571" transform="translate(7.506 25.79) rotate(160.969)" fill="#fff"/>
    <rect id="Retângulo_1459" data-name="Retângulo 1459" width="6.856" height="3.141" rx="1.571" transform="translate(6.482 17.7) rotate(-160.969)" fill="#fff"/>
    <rect id="Retângulo_1460" data-name="Retângulo 1460" width="6.856" height="3.141" rx="1.571" transform="translate(32.011 14.73) rotate(-19.031)" fill="#fff"/>
    <rect id="Retângulo_1461" data-name="Retângulo 1461" width="6.856" height="3.141" rx="1.571" transform="translate(26.404 8.614) rotate(-54.551)" fill="#fff"/>
    <rect id="Retângulo_1462" data-name="Retângulo 1462" width="6.856" height="3.141" rx="1.571" transform="translate(10.658 10.436) rotate(-125.449)" fill="#fff"/>
    <rect id="Retângulo_1463" data-name="Retângulo 1463" width="6.856" height="3.141" rx="1.571" transform="translate(18.188 6.857) rotate(-90)" fill="#fff"/>
    <rect id="Retângulo_1464" data-name="Retângulo 1464" width="6.968" height="3.141" rx="1.571" transform="translate(13.328 32.107) rotate(127.905)" fill="#fff"/>
  </g>
</svg>
