<svg xmlns="http://www.w3.org/2000/svg" width="196.397" height="55.58" viewBox="0 0 196.397 55.58">
  <g id="Grupo_202" data-name="Grupo 202" transform="translate(0 0)">
    <g id="Grupo_176" data-name="Grupo 176" transform="translate(0 0)">
      <path id="Caminho_324" data-name="Caminho 324" d="M601.1,664.791c8.883-10.482,18.491-14.57,28.386-11.967q7.186,1.875,10.466,7.265,3.749,6.093-.078,13.045a16.405,16.405,0,0,1-3.788,4.413,26.986,26.986,0,0,1-4.336,3.086q-1.953,1.094-4.764,2.343a50.793,50.793,0,0,1-13.279,3.437l-.7,7.811q-.392,5.155-.547,7.5a2.123,2.123,0,0,1-.742,1.445,1.948,1.948,0,0,1-1.523.508,2.116,2.116,0,0,1-1.445-.742,1.947,1.947,0,0,1-.508-1.523l.7-8.28q.469-6.327.742-9.334t.821-8.085q.546-5.076,1.249-9.3t1.563-8.28c-4.062,1.562-5.343,6.5-9.561,9.935a2.146,2.146,0,0,1-1.563.469,1.933,1.933,0,0,1-1.406-.781,2.139,2.139,0,0,1-.468-1.562A2.537,2.537,0,0,1,601.1,664.791Zm16.2-7.9a1.827,1.827,0,0,1,.234,1.562,189.4,189.4,0,0,0-3.437,23.668,45.5,45.5,0,0,0,11.17-3.047,47.318,47.318,0,0,0,6.795-3.593,13.44,13.44,0,0,0,4.062-4.374q2.733-4.842.235-8.826-2.344-3.9-7.967-5.389A22.211,22.211,0,0,0,617.3,656.886Z" transform="translate(-600.309 -651.012)" fill="#fff"/>
      <path id="Caminho_325" data-name="Caminho 325" d="M730.093,762.426a8.043,8.043,0,0,0,1.172,3.671q1.951,2.891,6.717,1.8a9.262,9.262,0,0,0,6.093-5.077,30.554,30.554,0,0,0,1.406-3.085q.624-1.6,1.328-3.71t1.249-3.593a2.108,2.108,0,0,1,3.866-.078,2.108,2.108,0,0,1,.04,1.64l-1.094,3.281q-.781,2.187-1.484,4.062a31.232,31.232,0,0,1-1.562,3.515,13.049,13.049,0,0,1-8.9,7.108q-7.578,1.8-11.092-3.515-2.813-4.139-1.8-10.936a22.044,22.044,0,0,1,4.14-10.623,11.583,11.583,0,0,1,4.14-3.476A6.84,6.84,0,0,1,744,749.538a12.326,12.326,0,0,1-2.265,7.577,12.1,12.1,0,0,1-6.405,5.233A8.554,8.554,0,0,1,730.093,762.426Zm.078-4.53a4.543,4.543,0,0,0,3.827.469,8.576,8.576,0,0,0,4.218-3.593,8.255,8.255,0,0,0,1.562-5,2.528,2.528,0,0,0-1.875-2.578q-2.109-.78-4.374,2.265A18.132,18.132,0,0,0,730.171,757.9Z" transform="translate(-691.512 -716.951)" fill="#fff"/>
      <path id="Caminho_326" data-name="Caminho 326" d="M795.891,688.648a37.548,37.548,0,0,1-5.468-.937,1.908,1.908,0,0,1-1.328-.9,2.129,2.129,0,0,1,.664-2.929,1.924,1.924,0,0,1,1.6-.234,45.685,45.685,0,0,0,5.39.859q1.482-6.4,3.593-13.591a2.017,2.017,0,0,1,1.016-1.211,2.045,2.045,0,0,1,1.6-.2,2.02,2.02,0,0,1,1.249,1.015,2.128,2.128,0,0,1,.2,1.64q-1.953,6.406-3.281,12.341a36.2,36.2,0,0,0,5.39-.781,1.926,1.926,0,0,1,1.6.235,2.126,2.126,0,0,1,.664,2.928,1.908,1.908,0,0,1-1.327.9,41.856,41.856,0,0,1-7.264,1.015q-2.657,12.889-1.8,20a10.614,10.614,0,0,0,1.211,4.1,4.178,4.178,0,0,0,1.913,1.914q2.344.86,4.922-3.437,2.811-4.687,4.452-13.357a2.423,2.423,0,0,1,.937-1.367,1.857,1.857,0,0,1,1.563-.313,2.253,2.253,0,0,1,1.367.9,1.969,1.969,0,0,1,.351,1.563q-1.875,9.451-5.077,14.763a12.927,12.927,0,0,1-4.647,4.8,6.167,6.167,0,0,1-5.351.43,8.051,8.051,0,0,1-3.983-3.515,15.382,15.382,0,0,1-1.875-6.015Q793.235,701.536,795.891,688.648Z" transform="translate(-737.315 -663.637)" fill="#fff"/>
      <path id="Caminho_327" data-name="Caminho 327" d="M894.032,675.183q2.031-11.951-.156-16.794a4.147,4.147,0,0,0-1.8-2.031,3.543,3.543,0,0,0-2.5.156Q885.6,658,881.417,664.17a38.922,38.922,0,0,0-5.818,14.216q-1.72,8.984.468,14.412t6.561,6.757q4.453,1.329,10.037-1.641t10.35-10.467a2.02,2.02,0,0,1,1.328-.976,2.118,2.118,0,0,1,2.538,1.6,1.935,1.935,0,0,1-.274,1.563q-5.312,8.436-12.185,12.146t-13.045,1.836q-6.327-2.03-9.06-8.983-2.812-6.872-.781-17.028a43.353,43.353,0,0,1,6.561-16.012q4.764-7.108,10-8.983a7.145,7.145,0,0,1,5.468-.156,7.337,7.337,0,0,1,4.14,4.218q2.733,6.015.546,19.137a2.16,2.16,0,0,1-2.422,1.757,1.943,1.943,0,0,1-1.367-.82A2.237,2.237,0,0,1,894.032,675.183Z" transform="translate(-796.87 -650.954)" fill="#fff"/>
      <path id="Caminho_328" data-name="Caminho 328" d="M1016.428,748.021a.228.228,0,0,1,.156.078,2.422,2.422,0,0,1,.7,1.562,3.927,3.927,0,0,1-.234,1.641,3.771,3.771,0,0,1-.391.938l-.079.39q-.469,2.5-.468,2.577-.158,1.329-.234,2.656-.157,1.485-.156,1.718a16.2,16.2,0,0,0,.625,5,3.959,3.959,0,0,0,2.577,2.578,3.05,3.05,0,0,0,2.891-.781,13.253,13.253,0,0,0,2.812-4.3,48.517,48.517,0,0,0,2.109-6.014q1.482-4.687,1.64-5.078a2.088,2.088,0,0,1,3.866-.156,1.929,1.929,0,0,1,.039,1.562q-.079.314-1.484,4.921a57.354,57.354,0,0,1-2.344,6.561,16.077,16.077,0,0,1-3.906,5.7,6.9,6.9,0,0,1-6.717,1.641,7.766,7.766,0,0,1-5.39-5.234,7.031,7.031,0,0,1-.39-1.25,14.164,14.164,0,0,1-1.328,1.953,10.233,10.233,0,0,1-5.077,4.061q-3.673,1.093-6.64-2.421-2.187-2.578-1.952-7.889a28.736,28.736,0,0,1,2.109-9.217,17.757,17.757,0,0,1,5.077-7.5,7.389,7.389,0,0,1,8.592-.7,7.576,7.576,0,0,1,3.2,3.046,10.768,10.768,0,0,1,.391,1.719Zm-3.984,2.265q-.078-.546-.234-1.953a2.959,2.959,0,0,0-.157-.7q.077-.156-1.249-.859a3.341,3.341,0,0,0-3.984.313,13.238,13.238,0,0,0-3.75,5.7,22.537,22.537,0,0,0-1.8,7.889q-.158,3.672,1.016,5t2.187,1.015a6.828,6.828,0,0,0,2.891-2.578,24.777,24.777,0,0,0,2.734-4.686,30.323,30.323,0,0,0,1.719-4.3c.051-.207.1-.39.156-.547v-.547q.233-2.03.468-3.281a.858.858,0,0,1,.079-.391A.07.07,0,0,0,1012.443,750.286Z" transform="translate(-888.725 -716.371)" fill="#fff"/>
      <path id="Caminho_329" data-name="Caminho 329" d="M1114.372,741.623a40.84,40.84,0,0,0,6.483,1.015h.078a1.952,1.952,0,0,1,.7-.078,2.753,2.753,0,0,1,2.812,1.094,2.528,2.528,0,0,1,.469,1.562,8.741,8.741,0,0,1-.078,1.016q-.078.7-.391,2.109l-.781,2.891q-.547,2.032-.781,3.046a57.574,57.574,0,0,0-1.25,6.327,9.948,9.948,0,0,0,0,4.374,3.511,3.511,0,0,0,1.016,1.64,2,2,0,0,0,1.563.547q2.811-.156,5.311-5.546a44.313,44.313,0,0,0,3.124-9.608,1.786,1.786,0,0,1,.82-1.367,1.826,1.826,0,0,1,1.524-.313,2.192,2.192,0,0,1,1.289.938,1.717,1.717,0,0,1,.273,1.523,49.96,49.96,0,0,1-3.358,10.623q-3.515,7.656-8.827,7.967a5.565,5.565,0,0,1-4.218-1.445,8.194,8.194,0,0,1-2.46-3.749,14.91,14.91,0,0,1-.118-6.132,54.435,54.435,0,0,1,1.328-6.8q.312-1.014.781-3.046l.7-2.812.156-.625a38.408,38.408,0,0,1-5-.625l-.312,1.719q-.235,1.016-.391,1.484a5.555,5.555,0,0,1-.234.7l-.547,1.563q-.392,1.016-.859,2.109a2.043,2.043,0,0,1-1.054,1.211,1.831,1.831,0,0,1-1.524.039,2.028,2.028,0,0,1-1.132-1.093,1.917,1.917,0,0,1-.039-1.562q.389-1.172.742-2.148t.507-1.328a4.062,4.062,0,0,0,.235-.664q.077-.311.235-1.172l.625-2.812a.694.694,0,0,1,.078-.312,2.91,2.91,0,0,1,.078-.7,1.945,1.945,0,0,1,.86-1.328A1.825,1.825,0,0,1,1114.372,741.623Z" transform="translate(-970.344 -716.065)" fill="#fff"/>
      <path id="Caminho_330" data-name="Caminho 330" d="M1201.511,676.508a71.353,71.353,0,0,1-.235-8.827q.546-11.248,4.686-16.325,2.734-3.358,6.093-3.125a4.971,4.971,0,0,1,3.242,1.328,7.778,7.778,0,0,1,2.07,3.359,14.31,14.31,0,0,1,.391,4.764q0,.7-.118,2.109t-.117,2.031a1.935,1.935,0,0,1-.235.859q-3.514,18.043-8.67,28.588l.625,2.109a10.828,10.828,0,0,0,2.422,4.374.9.9,0,0,0,.625.313,2.094,2.094,0,0,0,1.171-.546q4.53-3.515,6.561-14.607a2.044,2.044,0,0,1,.9-1.367,2.078,2.078,0,0,1,1.6-.351,2.051,2.051,0,0,1,1.367.9,2.079,2.079,0,0,1,.351,1.6q-2.342,12.654-8.123,17.106a6.359,6.359,0,0,1-3.827,1.484,5.193,5.193,0,0,1-3.437-1.328,13.175,13.175,0,0,1-3.046-4.765l-.547.859a14.066,14.066,0,0,1-6.17,4.921,6.63,6.63,0,0,1-4.413.547,6.752,6.752,0,0,1-4.179-2.734q-2.5-3.436-1.953-9.373a22.32,22.32,0,0,1,3.125-9.451q3.124-4.922,7.342-5A6.212,6.212,0,0,1,1201.511,676.508Zm2.655,14.294q-.391-1.483-.7-3.2-.861-4.218-.937-4.374a2.522,2.522,0,0,1-.079-.625q-1.8-2.421-3.437-2.422-1.874,0-3.749,3.046a17.519,17.519,0,0,0-2.5,7.655q-.468,4.218,1.172,6.405,1.248,1.719,3.593.781a9.842,9.842,0,0,0,4.3-3.515A39.1,39.1,0,0,0,1204.166,690.8Zm1.953-8.826a9.745,9.745,0,0,1,.7,1.64.223.223,0,0,0,.078.156,173.451,173.451,0,0,0,3.828-19.528v-.39q0-.469.078-1.719c.051-.832.078-1.457.078-1.874a9.175,9.175,0,0,0-.156-3.124q-.313-1.562-.937-1.563-.86-.077-1.8,1.484-2.188,3.673-2.5,12.81A64.2,64.2,0,0,0,1206.119,681.975Z" transform="translate(-1027.88 -648.216)" fill="#fff"/>
    </g>
    <path id="Caminho_331" data-name="Caminho 331" d="M678.083,683.829c0,1.016-.5,1.839-1.114,1.839s-1.114-.823-1.114-1.839.5-1.839,1.114-1.839S678.083,682.814,678.083,683.829Z" transform="translate(-655.23 -672.769)" fill="#fff"/>
    <path id="Caminho_332" data-name="Caminho 332" d="M725.1,692.949c0,2.618-1.424,4.739-3.182,4.739s-3.183-2.122-3.183-4.739,1.425-4.74,3.183-4.74S725.1,690.331,725.1,692.949Z" transform="translate(-686.407 -677.291)" fill="#fff"/>
  </g>
</svg>
