<svg xmlns="http://www.w3.org/2000/svg" width="86.027" height="78.931" viewBox="0 0 86.027 78.931">
  <g id="comprimidos" transform="translate(0 -16.814)">
    <path id="Caminho_246" data-name="Caminho 246" d="M93.269,43.6c5.583,1.517,9.482,6.244,9.482,11.5V70.579a1.266,1.266,0,0,0,2.532,0V55.1a13.64,13.64,0,0,0-3.242-8.807,16.09,16.09,0,0,0-8.109-5.132,1.266,1.266,0,0,0-.664,2.444Z" transform="translate(-72.85 -19.171)" fill="#fff5f1"/>
    <path id="Caminho_247" data-name="Caminho 247" d="M35.745,316.36a12.37,12.37,0,0,1-6.8-7.623,1.266,1.266,0,0,0-2.431.708,14.9,14.9,0,0,0,8.16,9.21,1.266,1.266,0,0,0,1.067-2.3Z" transform="translate(-20.882 -229.603)" fill="#fff5f1"/>
    <path id="Caminho_248" data-name="Caminho 248" d="M86.027,61.371c0-8.41-13.8-15-31.413-15a65.9,65.9,0,0,0-8.14.5,1.266,1.266,0,0,0-1.041.845c-.079.23,0,4.7,0,4.7-.828.234-1.72.448-2.6.643L39.1,49.317a2.489,2.489,0,0,0-1.7-.634V35.513a18.7,18.7,0,1,0-37.4,0V77.045a18.7,18.7,0,0,0,35.968,7.171,58.441,58.441,0,0,0,18.647,2.867c17.613,0,31.41-6.586,31.41-14.995C86.025,72.089,86.027,61.392,86.027,61.371ZM54.614,48.906c15.634,0,28.845,5.693,28.88,12.439,0,.008,0,.083,0,.083-.044,3.813-4.547,7.581-11.833,9.938L49.408,49.114C51.118,48.976,52.86,48.906,54.614,48.906ZM47.93,51.217l22.11,22.11v1.644L47.93,52.861ZM46.284,54.8l22.58,22.58q-2.4.609-5.011,1v-3.6a1.264,1.264,0,0,0-.358-1.057L44.94,55.162C45.4,55.046,45.842,54.922,46.284,54.8Zm13.538,18.83c-1.714.139-3.457.209-5.207.209A55.785,55.785,0,0,1,37.4,71.308V51.216C37.456,51.2,59.822,73.625,59.822,73.625ZM18.7,19.346A16.185,16.185,0,0,1,34.866,35.513v19.5H2.532v-19.5A16.185,16.185,0,0,1,18.7,19.346Zm0,73.866A16.185,16.185,0,0,1,2.532,77.045v-19.5H34.866v19.5A16.185,16.185,0,0,1,18.7,93.212ZM83.493,72.089c0,6.755-13.224,12.463-28.878,12.463A55.826,55.826,0,0,1,36.78,81.819a18.659,18.659,0,0,0,.618-4.773V73.964a59.1,59.1,0,0,0,17.217,2.4,66.664,66.664,0,0,0,6.705-.337v3.8A1.266,1.266,0,0,0,62.586,81.1a1.288,1.288,0,0,0,.156-.009,52.965,52.965,0,0,0,8.934-1.863,1.266,1.266,0,0,0,.9-1.211V73.73c4.9-1.6,8.641-3.816,10.92-6.372v4.73Z" fill="#fff"/>
  </g>
</svg>
