<svg xmlns="http://www.w3.org/2000/svg" width="16.481" height="16.773" viewBox="0 0 16.481 16.773">
  <g id="Grupo_753" data-name="Grupo 753" transform="translate(0 0)" opacity="0.4">
    <path id="Caminho_314" data-name="Caminho 314" d="M733,647" transform="translate(-726.9 -631.95)" fill="#3c6382"/>
    <path id="Caminho_315" data-name="Caminho 315" d="M684.512,394.057h0a4.608,4.608,0,1,0-7.421.527h0l1.365,2.106V398.2h4.263V396.69l1.605-2.356q.1-.133.185-.272Z" transform="translate(-672.355 -383.147)" fill="#3c6382"/>
    <rect id="Retângulo_1455" data-name="Retângulo 1455" width="4.393" height="0.991" rx="0.495" transform="translate(6.057 15.782)" fill="#3c6382"/>
    <rect id="Retângulo_1456" data-name="Retângulo 1456" width="2.859" height="1.31" rx="0.655" transform="translate(12.025 12.601) rotate(52.55)" fill="#3c6382"/>
    <rect id="Retângulo_1457" data-name="Retângulo 1457" width="2.859" height="1.31" rx="0.655" transform="translate(13.777 9.517) rotate(19.031)" fill="#3c6382"/>
    <rect id="Retângulo_1458" data-name="Retângulo 1458" width="2.859" height="1.31" rx="0.655" transform="translate(3.13 10.756) rotate(160.969)" fill="#3c6382"/>
    <rect id="Retângulo_1459" data-name="Retângulo 1459" width="2.859" height="1.31" rx="0.655" transform="translate(2.703 7.382) rotate(-160.969)" fill="#3c6382"/>
    <rect id="Retângulo_1460" data-name="Retângulo 1460" width="2.859" height="1.31" rx="0.655" transform="translate(13.35 6.143) rotate(-19.031)" fill="#3c6382"/>
    <rect id="Retângulo_1461" data-name="Retângulo 1461" width="2.859" height="1.31" rx="0.655" transform="translate(11.012 3.593) rotate(-54.551)" fill="#3c6382"/>
    <rect id="Retângulo_1462" data-name="Retângulo 1462" width="2.859" height="1.31" rx="0.655" transform="translate(4.445 4.352) rotate(-125.449)" fill="#3c6382"/>
    <rect id="Retângulo_1463" data-name="Retângulo 1463" width="2.859" height="1.31" rx="0.655" transform="translate(7.585 2.859) rotate(-90)" fill="#3c6382"/>
    <rect id="Retângulo_1464" data-name="Retângulo 1464" width="2.906" height="1.31" rx="0.655" transform="translate(5.559 13.39) rotate(127.905)" fill="#3c6382"/>
  </g>
</svg>
