<svg xmlns="http://www.w3.org/2000/svg" width="18.831" height="16.19" viewBox="0 0 18.831 16.19">
  <g id="paw" opacity="0.4">
    <g id="Grupo_123" data-name="Grupo 123" transform="translate(3.087 7.01)">
      <g id="Grupo_122" data-name="Grupo 122" transform="translate(0 0)">
        <path id="Caminho_297" data-name="Caminho 297" d="M94.783,228.868a5.472,5.472,0,0,0-9.019,0,7.6,7.6,0,0,0-1.819,4.635,2.071,2.071,0,0,0,.674,1.68,2.54,2.54,0,0,0,1.675.492,12.847,12.847,0,0,0,2.216-.279,10.907,10.907,0,0,1,1.763-.235,10.269,10.269,0,0,1,1.618.223c1.446.268,3.085.573,4.032-.214A2.052,2.052,0,0,0,96.6,233.5,7.6,7.6,0,0,0,94.783,228.868Z" transform="translate(-83.945 -226.496)" fill="#3c6382"/>
      </g>
    </g>
    <g id="Grupo_125" data-name="Grupo 125" transform="translate(9.752 0)">
      <g id="Grupo_124" data-name="Grupo 124" transform="translate(0 0)">
        <path id="Caminho_298" data-name="Caminho 298" d="M269.444,36.981a2.08,2.08,0,0,0-3.642,0,4.411,4.411,0,0,0,0,4.643,2.08,2.08,0,0,0,3.642,0,4.411,4.411,0,0,0,0-4.643Z" transform="translate(-265.141 -35.906)" fill="#3c6382"/>
      </g>
    </g>
    <g id="Grupo_127" data-name="Grupo 127" transform="translate(4.116 0)">
      <g id="Grupo_126" data-name="Grupo 126">
        <path id="Caminho_299" data-name="Caminho 299" d="M116.219,36.98a2.08,2.08,0,0,0-3.642,0,4.411,4.411,0,0,0,0,4.643,2.08,2.08,0,0,0,3.642,0,4.411,4.411,0,0,0,0-4.643Z" transform="translate(-111.916 -35.905)" fill="#3c6382"/>
      </g>
    </g>
    <g id="Grupo_129" data-name="Grupo 129" transform="translate(14.614 5.002)">
      <g id="Grupo_128" data-name="Grupo 128">
        <path id="Caminho_300" data-name="Caminho 300" d="M401.457,173.318a1.9,1.9,0,0,0-1.128-1.3,1.772,1.772,0,0,0-1.382.078,2.844,2.844,0,0,0-1.411,1.668,3.075,3.075,0,0,0-.077,1.862,1.9,1.9,0,0,0,1.128,1.3,1.659,1.659,0,0,0,.585.105,1.883,1.883,0,0,0,.8-.183,2.844,2.844,0,0,0,1.411-1.668h0A3.075,3.075,0,0,0,401.457,173.318Z" transform="translate(-397.35 -171.912)" fill="#3c6382"/>
      </g>
    </g>
    <g id="Grupo_131" data-name="Grupo 131" transform="translate(0 5.002)">
      <g id="Grupo_130" data-name="Grupo 130">
        <path id="Caminho_301" data-name="Caminho 301" d="M4.031,173.763a2.845,2.845,0,0,0-1.411-1.668,1.773,1.773,0,0,0-1.382-.078,1.9,1.9,0,0,0-1.128,1.3,3.075,3.075,0,0,0,.077,1.862h0A2.845,2.845,0,0,0,1.6,176.847a1.882,1.882,0,0,0,.8.183,1.66,1.66,0,0,0,.585-.105,1.9,1.9,0,0,0,1.128-1.3A3.076,3.076,0,0,0,4.031,173.763Z" transform="translate(-0.001 -171.912)" fill="#3c6382"/>
      </g>
    </g>
  </g>
</svg>
