<svg id="paw" xmlns="http://www.w3.org/2000/svg" width="42.018" height="36.125" viewBox="0 0 42.018 36.125">
  <g id="Grupo_123" data-name="Grupo 123" transform="translate(6.889 15.641)">
    <g id="Grupo_122" data-name="Grupo 122" transform="translate(0 0)">
      <path id="Caminho_297" data-name="Caminho 297" d="M108.127,231.789c-2.827-3.413-6.4-5.293-10.062-5.293S90.83,228.376,88,231.789a16.967,16.967,0,0,0-4.058,10.343,4.62,4.62,0,0,0,1.5,3.749,5.667,5.667,0,0,0,3.737,1.1,28.665,28.665,0,0,0,4.944-.624,24.336,24.336,0,0,1,3.935-.525,22.916,22.916,0,0,1,3.61.5c3.227.6,6.884,1.278,9-.479a4.578,4.578,0,0,0,1.514-3.718A16.966,16.966,0,0,0,108.127,231.789Z" transform="translate(-83.945 -226.496)" fill="#fff"/>
    </g>
  </g>
  <g id="Grupo_125" data-name="Grupo 125" transform="translate(21.759 0)">
    <g id="Grupo_124" data-name="Grupo 124" transform="translate(0 0)">
      <path id="Caminho_298" data-name="Caminho 298" d="M274.742,38.306a4.641,4.641,0,0,0-8.127,0,9.843,9.843,0,0,0,0,10.361,4.641,4.641,0,0,0,8.127,0,9.844,9.844,0,0,0,0-10.361Z" transform="translate(-265.141 -35.906)" fill="#fff"/>
    </g>
  </g>
  <g id="Grupo_127" data-name="Grupo 127" transform="translate(9.184 0)">
    <g id="Grupo_126" data-name="Grupo 126">
      <path id="Caminho_299" data-name="Caminho 299" d="M121.517,38.3a4.641,4.641,0,0,0-8.127,0,9.843,9.843,0,0,0,0,10.361,4.641,4.641,0,0,0,8.127,0,9.843,9.843,0,0,0,0-10.361Z" transform="translate(-111.916 -35.905)" fill="#fff"/>
    </g>
  </g>
  <g id="Grupo_129" data-name="Grupo 129" transform="translate(32.609 11.162)">
    <g id="Grupo_128" data-name="Grupo 128">
      <path id="Caminho_300" data-name="Caminho 300" d="M406.514,175.049a4.228,4.228,0,0,0-2.517-2.9,3.955,3.955,0,0,0-3.084.174,6.347,6.347,0,0,0-3.148,3.721,6.862,6.862,0,0,0-.171,4.154,4.228,4.228,0,0,0,2.517,2.9,3.7,3.7,0,0,0,1.305.235,4.2,4.2,0,0,0,1.779-.409,6.347,6.347,0,0,0,3.148-3.721h0A6.862,6.862,0,0,0,406.514,175.049Z" transform="translate(-397.35 -171.912)" fill="#fff"/>
    </g>
  </g>
  <g id="Grupo_131" data-name="Grupo 131" transform="translate(0 11.162)">
    <g id="Grupo_130" data-name="Grupo 130">
      <path id="Caminho_301" data-name="Caminho 301" d="M8.994,176.042a6.347,6.347,0,0,0-3.148-3.721,3.956,3.956,0,0,0-3.084-.174,4.228,4.228,0,0,0-2.517,2.9A6.862,6.862,0,0,0,.416,179.2h0a6.347,6.347,0,0,0,3.148,3.721,4.2,4.2,0,0,0,1.779.409,3.7,3.7,0,0,0,1.305-.235,4.228,4.228,0,0,0,2.517-2.9A6.864,6.864,0,0,0,8.994,176.042Z" transform="translate(-0.001 -171.912)" fill="#fff"/>
    </g>
  </g>
</svg>
