<svg xmlns="http://www.w3.org/2000/svg" width="89.693" height="77.113" viewBox="0 0 89.693 77.113">
  <g id="paw" transform="translate(-0.001 -35.905)">
    <g id="Grupo_135" data-name="Grupo 135" transform="translate(14.706 69.293)">
      <g id="Grupo_134" data-name="Grupo 134">
        <path id="Caminho_302" data-name="Caminho 302" d="M135.564,237.795c-6.035-7.286-13.662-11.3-21.479-11.3s-15.444,4.013-21.478,11.3c-5.424,6.549-8.662,14.8-8.662,22.079,0,3.534,1.081,6.227,3.211,8,2.1,1.753,4.88,2.345,7.978,2.345a61.189,61.189,0,0,0,10.553-1.331,51.949,51.949,0,0,1,8.4-1.121,48.906,48.906,0,0,1,7.706,1.064c6.888,1.279,14.694,2.728,19.2-1.022,2.144-1.782,3.231-4.453,3.231-7.937C144.227,252.6,140.989,244.344,135.564,237.795Z" transform="translate(-83.945 -226.496)" fill="#fff"/>
      </g>
    </g>
    <g id="Grupo_137" data-name="Grupo 137" transform="translate(46.448 35.905)">
      <g id="Grupo_136" data-name="Grupo 136" transform="translate(0 0)">
        <path id="Caminho_303" data-name="Caminho 303" d="M285.635,41.028c-2.208-3.255-5.37-5.122-8.674-5.122s-6.466,1.867-8.674,5.122a19.849,19.849,0,0,0-3.145,11.058,19.847,19.847,0,0,0,3.145,11.058c2.208,3.255,5.37,5.122,8.674,5.122s6.466-1.867,8.674-5.122a19.849,19.849,0,0,0,3.145-11.058A19.847,19.847,0,0,0,285.635,41.028Z" transform="translate(-265.141 -35.906)" fill="#fff"/>
      </g>
    </g>
    <g id="Grupo_139" data-name="Grupo 139" transform="translate(19.606 35.905)">
      <g id="Grupo_138" data-name="Grupo 138" transform="translate(0 0)">
        <path id="Caminho_304" data-name="Caminho 304" d="M132.41,41.027c-2.208-3.255-5.369-5.122-8.674-5.122s-6.467,1.867-8.674,5.122a19.849,19.849,0,0,0-3.145,11.058,19.847,19.847,0,0,0,3.145,11.058c2.208,3.255,5.369,5.122,8.674,5.122s6.466-1.867,8.674-5.122a19.848,19.848,0,0,0,3.145-11.058A19.85,19.85,0,0,0,132.41,41.027Z" transform="translate(-111.916 -35.905)" fill="#fff"/>
      </g>
    </g>
    <g id="Grupo_141" data-name="Grupo 141" transform="translate(69.609 59.731)">
      <g id="Grupo_140" data-name="Grupo 140">
        <path id="Caminho_305" data-name="Caminho 305" d="M416.912,178.608a9.025,9.025,0,0,0-5.372-6.195,8.443,8.443,0,0,0-6.584.372,13.548,13.548,0,0,0-6.719,7.944,14.647,14.647,0,0,0-.365,8.868,9.024,9.024,0,0,0,5.372,6.195,7.9,7.9,0,0,0,2.786.5,8.966,8.966,0,0,0,3.8-.872,13.548,13.548,0,0,0,6.719-7.943h0A14.647,14.647,0,0,0,416.912,178.608Z" transform="translate(-397.35 -171.912)" fill="#fff"/>
      </g>
    </g>
    <g id="Grupo_143" data-name="Grupo 143" transform="translate(0.001 59.731)">
      <g id="Grupo_142" data-name="Grupo 142">
        <path id="Caminho_306" data-name="Caminho 306" d="M19.2,180.727a13.548,13.548,0,0,0-6.719-7.943,8.444,8.444,0,0,0-6.584-.372,9.025,9.025,0,0,0-5.372,6.195,14.647,14.647,0,0,0,.365,8.868h0a13.549,13.549,0,0,0,6.719,7.943,8.967,8.967,0,0,0,3.8.872,7.905,7.905,0,0,0,2.786-.5,9.024,9.024,0,0,0,5.372-6.195A14.652,14.652,0,0,0,19.2,180.727Z" transform="translate(-0.001 -171.912)" fill="#fff"/>
      </g>
    </g>
  </g>
</svg>
