<svg id="surface1" xmlns="http://www.w3.org/2000/svg" width="85.84" height="85.847" viewBox="0 0 85.84 85.847">
  <path id="Caminho_245" data-name="Caminho 245" d="M70.141.923a3.152,3.152,0,0,0-4.458,4.458l3.3,3.262-3.205,3.2L59.6,5.664a3.227,3.227,0,0,0-4.458,0,3.154,3.154,0,0,0,0,4.456s0,0,0,0l2.139,2.142L51.581,18,45.54,24.038,27.428,42.15,21.419,48.2l-6.536,6.538a1.177,1.177,0,0,0,0,1.669l3.2,3.205-4.039,4.04a1.179,1.179,0,0,0,0,1.671l2.479,2.479L.377,83.926a1.181,1.181,0,0,0,1.575,1.723l.054-.054L18.16,69.481l2.474,2.484a1.182,1.182,0,0,0,1.666,0l4.04-4.039,3.2,3.2a1.184,1.184,0,0,0,1.671,0L73.645,28.7,75.8,30.849a3.152,3.152,0,1,0,4.458-4.458L74.071,20.21,77.276,17l3.3,3.3a3.15,3.15,0,0,0,4.455-4.456ZM21.473,69.435l-4.96-4.963,3.205-3.2,4.96,4.96Zm8.916-.842-3.2-3.151-6.639-6.661-3.2-3.2,4.852-4.876,3.875,3.872A1.179,1.179,0,0,0,27.8,53.011l-.086-.1L23.861,49.04l4.372-4.372L32.1,48.543a1.182,1.182,0,0,0,1.726-1.575l-.054-.057L29.9,43.039l4.372-4.372,3.9,3.835a1.181,1.181,0,1,0,1.964-1.312,1.206,1.206,0,0,0-.239-.261l-.057-.057-3.877-3.882L40.319,32.6l3.875,3.875A1.181,1.181,0,0,0,45.831,34.8l-3.86-3.877,4.372-4.367,3.875,3.872a1.183,1.183,0,1,0,1.967-1.315,1.218,1.218,0,0,0-.241-.261l-3.929-3.929,4.362-4.362,3.9,3.828a1.183,1.183,0,0,0,1.967-1.314,1.1,1.1,0,0,0-.241-.261l-.054-.057-3.875-3.882,4.869-4.867L71.988,27.053Zm48.2-40.54a.785.785,0,1,1-1.11,1.11L74.5,26.184,59.786,11.476,56.81,8.5A.79.79,0,0,1,57.927,7.38L71.574,21.03Zm-6.183-9.521-4.96-4.96,3.2-3.205,4.963,4.963Zm10.961.094a.787.787,0,0,1-1.11,0L67.353,3.719A.791.791,0,0,1,68.47,2.6l14.9,14.91a.782.782,0,0,1,0,1.11Zm0,0" transform="translate(-0.115 0)" fill="#fff"/>
</svg>
